<?xml version="1.0" encoding="UTF-8" standalone="no"?>
<!-- Generator: Adobe Illustrator 15.1.0, SVG Export Plug-In . SVG Version: 6.00 Build 0)  -->

<svg
   xmlns:dc="http://purl.org/dc/elements/1.1/"
   xmlns:cc="http://creativecommons.org/ns#"
   xmlns:rdf="http://www.w3.org/1999/02/22-rdf-syntax-ns#"
   xmlns:svg="http://www.w3.org/2000/svg"
   xmlns="http://www.w3.org/2000/svg"
   xmlns:sodipodi="http://sodipodi.sourceforge.net/DTD/sodipodi-0.dtd"
   xmlns:inkscape="http://www.inkscape.org/namespaces/inkscape"
   version="1.1"
   id="Layer_1"
   x="0px"
   y="0px"
   width="195.06799"
   height="33.419998"
   viewBox="0 0 195.06799 33.419998"
   enable-background="new 0 0 612 792"
   xml:space="preserve"
   inkscape:version="0.48.1 r9760"
   sodipodi:docname="Seppi_text-3.svg"><metadata
   id="metadata39"><rdf:RDF><cc:Work
       rdf:about=""><dc:format>image/svg+xml</dc:format><dc:type
         rdf:resource="http://purl.org/dc/dcmitype/StillImage" /><dc:title></dc:title></cc:Work></rdf:RDF></metadata><defs
   id="defs37">
	
	
</defs><sodipodi:namedview
   pagecolor="#ffffff"
   bordercolor="#666666"
   borderopacity="1"
   objecttolerance="10"
   gridtolerance="10"
   guidetolerance="10"
   inkscape:pageopacity="0"
   inkscape:pageshadow="2"
   inkscape:window-width="1120"
   inkscape:window-height="772"
   id="namedview35"
   showgrid="false"
   fit-margin-top="0"
   fit-margin-left="0"
   fit-margin-right="0"
   fit-margin-bottom="0"
   inkscape:zoom="3.2949117"
   inkscape:cx="97.995666"
   inkscape:cy="17.231983"
   inkscape:window-x="0"
   inkscape:window-y="0"
   inkscape:window-maximized="0"
   inkscape:current-layer="Layer_1" />
<g
   id="g7"
   transform="translate(-190.074,-314.602)">
		<path
   style="fill:#ffffff"
   inkscape:connector-curvature="0"
   id="path9"
   d="m 192.531,325.434 c 0.321,-0.107 1.853,-0.643 2.423,-0.855 0.535,-0.215 1.212,-0.535 1.604,-0.535 0.356,0 0.428,0.393 0.428,3.279 0,3.705 -0.107,10.26 -0.107,11.115 0,0.855 -0.071,1.496 -0.143,2.102 -0.284,2.424 -1.639,4.633 -2.957,5.773 -0.962,0.891 -2.743,1.709 -3.1,1.709 -0.249,0 -0.605,-0.143 -0.605,-0.391 0,-0.428 0.249,-0.678 0.57,-0.928 0.534,-0.391 0.962,-0.713 1.39,-1.104 0.997,-0.963 1.924,-2.387 1.924,-6.021 0,-3.634 -0.036,-9.014 -0.107,-10.975 -0.035,-0.998 0,-1.281 -1.247,-1.852 -0.428,-0.18 -0.677,-0.5 -0.677,-0.748 -0.001,-0.321 0.427,-0.464 0.604,-0.569 z m 4.134,-8.231 c 0.32,0.285 0.498,1.104 0.498,1.389 0,0.713 -0.285,1.248 -0.712,1.533 -0.356,0.32 -0.892,0.428 -1.176,0.428 -0.962,0 -1.817,-0.785 -1.817,-1.854 0,-1.391 1.318,-1.959 1.817,-1.959 0.57,0 1.069,0.248 1.39,0.463 z" />
		<path
   style="fill:#ffffff"
   inkscape:connector-curvature="0"
   id="path11"
   d="m 215.699,331.525 c 0,2.709 -1.104,4.633 -2.315,5.736 -1.283,1.176 -3.028,2.139 -5.38,2.139 -2.103,0 -4.134,-0.855 -5.63,-2.316 -1.532,-1.496 -2.103,-3.67 -2.103,-5.273 0,-2.494 1.283,-4.668 2.851,-5.914 1.176,-0.998 3.136,-1.816 4.988,-1.816 4.917,-0.001 7.554,4.167 7.589,7.444 z m -10.546,-4.953 c -0.356,0.393 -1.461,1.996 -1.461,4.703 0,1.996 0.677,4.455 2.138,5.701 0.356,0.285 1.39,0.963 2.708,0.963 0.854,0 1.995,-0.5 2.708,-1.391 0.748,-0.961 0.962,-2.707 0.962,-4.773 0,-3.029 -1.604,-6.199 -4.632,-6.199 -0.784,0 -1.924,0.463 -2.423,0.996 z" />
		<path
   style="fill:#ffffff"
   inkscape:connector-curvature="0"
   id="path13"
   d="m 225.684,324.363 c 0.392,0.107 0.819,0.215 1.14,0.322 0.179,0.07 0.57,0.57 0.606,0.711 0.071,0.215 0.071,1.568 0.071,1.961 0,0.248 -0.285,1.033 -0.784,1.033 -0.143,0 -0.463,-0.32 -0.784,-0.963 -0.783,-1.461 -1.959,-2.066 -2.707,-2.066 -0.82,0 -2.067,0.785 -2.067,2.104 0,1.744 1.532,2.209 3.386,3.17 1.853,0.963 3.42,2.066 3.42,4.168 0,2.031 -1.318,3.314 -2.672,3.92 -1.033,0.498 -2.174,0.678 -3.064,0.678 -2.174,0 -3.242,-0.5 -3.634,-0.891 -0.356,-0.357 -0.713,-1.924 -0.713,-2.566 0,-0.926 0.249,-1.176 0.642,-1.176 0.214,0 0.463,0.25 0.926,0.963 1.033,1.604 2.28,2.279 3.242,2.279 1.604,0 2.494,-1.068 2.494,-2.209 0,-0.676 -0.392,-1.424 -1.282,-1.994 -0.962,-0.57 -1.746,-0.963 -2.814,-1.568 -1.176,-0.678 -2.565,-1.781 -2.565,-3.883 0,-1.711 0.962,-2.709 1.816,-3.35 0.819,-0.535 2.316,-0.926 3.1,-0.926 0.924,0 1.744,0.106 2.243,0.283 z" />
		<path
   style="fill:#ffffff"
   inkscape:connector-curvature="0"
   id="path15"
   d="m 242.23,326.217 c 0.463,0.678 0.605,1.604 0.605,2.494 0,0.393 -0.605,1.068 -0.962,1.068 -0.249,0 -7.019,0.107 -7.66,0.107 -0.106,0 -0.499,0.213 -0.57,0.393 -0.142,0.248 -0.178,0.891 -0.178,1.104 0,3.172 2.387,5.594 5.451,5.594 1.39,0 2.922,-0.891 3.599,-1.354 0.143,-0.107 0.428,0.07 0.428,0.463 0,0.393 -0.179,0.783 -0.463,1.105 -1.318,1.389 -3.207,2.209 -5.096,2.209 -4.453,0 -6.983,-3.029 -6.983,-7.375 0,-2.887 1.318,-5.346 3.456,-6.734 1.176,-0.785 2.673,-1.211 4.169,-1.211 1.71,0 3.35,0.748 4.204,2.137 z m -8.336,2.031 c -0.036,0.143 0.143,0.355 0.214,0.355 0.392,0.037 1.567,0.072 2.601,0.072 1.354,0 2.993,-0.072 2.993,-1.283 0,-1.068 -0.855,-2.031 -2.743,-2.031 -0.893,0 -2.603,1.106 -3.065,2.887 z" />
		<path
   style="fill:#ffffff"
   inkscape:connector-curvature="0"
   id="path17"
   d="m 245.623,326.43 c -0.321,-0.07 -0.606,-0.178 -0.606,-0.498 0,-0.498 0.464,-0.748 1.925,-1.389 0.143,-0.037 0.32,-0.393 0.32,-0.463 0,-1.318 0.392,-3.35 1.247,-4.953 0.713,-1.318 1.781,-2.352 2.743,-3.064 1.141,-0.82 2.814,-1.461 3.955,-1.461 1.354,0 2.637,0.357 3.171,1.105 0.143,0.178 0.249,0.676 0.249,0.961 0,0.178 -0.071,0.393 -0.178,0.57 -0.285,0.57 -1.068,0.998 -1.425,0.998 -0.179,0 -0.642,-0.143 -0.927,-0.357 -0.499,-0.391 -1.71,-1.318 -2.565,-1.318 -1.354,0 -2.209,0.928 -2.601,2.104 -0.463,1.318 -0.642,3.348 -0.642,4.916 0,0.713 0.107,0.926 0.285,0.926 1.141,0 3.848,-0.105 4.098,-0.105 0.428,0 0.498,1.176 0.498,1.496 0,0.07 -0.392,0.676 -0.605,0.676 -0.106,0 -3.741,-0.035 -4.097,-0.035 -0.179,0 -0.321,0.178 -0.321,1.068 0,3.029 0.107,5.025 0.179,7.84 0.035,1.674 0.427,1.924 2.28,2.209 0.605,0.107 1.068,0.463 1.068,0.713 0,0.428 -0.463,0.711 -1.176,0.711 -0.463,0 -1.781,-0.105 -3.776,-0.105 -0.393,0 -1.639,0.105 -2.637,0.105 -0.748,0 -1.141,-0.248 -1.141,-0.641 0,-0.32 0.356,-0.498 0.892,-0.713 0.926,-0.391 1.318,-0.818 1.354,-1.461 0.035,-0.57 0.106,-3.312 0.106,-9.121 0,-0.178 -0.213,-0.463 -0.284,-0.463 l -1.389,-0.251 z" />
		<path
   style="fill:#ffffff"
   inkscape:connector-curvature="0"
   id="path19"
   d="m 257.653,325.148 c 0.677,-0.32 1.603,-0.643 2.315,-0.998 0.428,-0.213 0.855,-0.355 0.927,-0.355 0.106,0 0.605,0.143 0.605,0.426 0,0.18 -0.036,1.213 -0.071,1.568 -0.036,0.178 0.143,0.178 0.249,0.107 1.104,-0.748 2.815,-1.816 5.06,-1.816 1.817,0 2.743,0.891 3.278,1.674 0.569,0.818 1.033,2.279 1.068,4.738 0.036,1.746 0.036,3.742 0.107,5.344 0.035,1.033 0.284,1.355 0.926,1.676 0.819,0.32 1.069,0.676 1.069,0.998 0,0.355 -0.57,0.568 -1.033,0.568 -0.464,0 -1.604,-0.105 -2.673,-0.105 -1.033,0 -1.816,0.105 -2.244,0.105 -0.463,0 -0.962,-0.105 -0.962,-0.568 0,-0.215 0.178,-0.5 0.783,-0.748 0.892,-0.322 1.141,-0.643 1.176,-1.533 0.036,-1.746 0.036,-3.277 0.036,-4.846 0,-2.672 -0.32,-3.74 -0.677,-4.203 -0.356,-0.465 -1.069,-0.963 -2.53,-0.963 -1.354,0 -2.387,0.32 -3.063,0.783 -0.071,0.072 -0.428,0.465 -0.428,0.891 0,0.357 0,7.447 0,8.268 0,0.533 -0.036,0.961 1.39,1.496 0.641,0.248 0.926,0.57 0.926,0.855 0,0.285 -0.356,0.568 -0.997,0.568 -1.176,0 -2.245,-0.105 -3.1,-0.105 -1.104,0 -2.245,0.105 -2.815,0.105 -0.641,0 -1.033,-0.178 -1.033,-0.533 0,-0.357 0.428,-0.643 0.784,-0.748 1.567,-0.5 1.781,-0.928 1.817,-1.711 0.106,-1.709 0.214,-4.383 0.214,-8.016 0,-0.57 -0.356,-0.963 -1.247,-1.498 -0.428,-0.32 -0.499,-0.463 -0.499,-0.533 10e-4,-0.25 0.321,-0.748 0.642,-0.891 z" />
		<path
   style="fill:#ffffff"
   inkscape:connector-curvature="0"
   id="path21"
   d="m 287.978,325.611 c 1.531,1.354 2.28,3.635 2.28,5.273 0,3.455 -1.817,6.199 -5.381,7.73 -0.997,0.463 -3.171,0.748 -3.919,0.748 -0.428,0 -1.068,0 -1.318,-0.07 -0.106,-0.035 -0.356,0.428 -0.356,0.713 0,1.604 -0.035,3.242 0,4.453 0,0.463 0.107,0.855 1.925,1.389 0.819,0.25 1.068,0.5 1.068,0.713 0,0.393 -0.392,0.678 -0.998,0.678 -0.284,0 -1.639,0.07 -3.277,0.07 -1.461,0 -3.242,0.322 -3.705,0.322 -0.428,0 -1.034,-0.107 -1.034,-0.643 0,-0.213 0.285,-0.533 0.963,-0.713 1.674,-0.463 1.888,-1.139 1.959,-2.352 0.107,-2.102 0.214,-3.99 0.214,-6.199 0.071,-6.805 0,-8.088 -0.035,-9.549 0,-0.248 -0.071,-0.533 -1.212,-1.354 -0.499,-0.32 -0.642,-0.498 -0.642,-0.605 0,-0.32 0.428,-0.748 0.82,-0.961 0.534,-0.25 1.745,-0.75 2.28,-1.105 0.463,-0.285 0.962,-0.535 1.211,-0.535 0.143,0 0.499,0.357 0.499,0.5 0,0.285 -0.107,0.998 -0.107,1.424 0,0.143 0.214,0.25 0.356,0.18 0.891,-0.535 1.995,-1.033 2.388,-1.176 0.854,-0.322 1.496,-0.428 2.173,-0.428 1.567,0.001 2.849,0.572 3.848,1.497 z m -8.124,1.319 c -0.071,0.035 -0.428,0.355 -0.463,0.676 -0.071,1.176 -0.107,3.85 -0.107,5.311 0,2.066 0.107,2.529 0.321,2.85 1.068,1.531 2.672,1.924 3.063,1.924 1.283,0 2.174,-0.535 2.779,-1.141 0.784,-0.818 1.675,-2.422 1.675,-4.418 0,-2.672 -1.425,-5.949 -4.561,-5.949 -1.175,-10e-4 -2.066,0.319 -2.707,0.747 z" />
		<path
   style="fill:#ffffff"
   inkscape:connector-curvature="0"
   id="path23"
   d="m 302.706,325.434 c 0.713,0.641 1.211,2.314 1.211,3.064 0,1.354 -0.143,2.85 -0.143,6.84 0,1.176 0.606,1.746 1.283,1.746 0.285,0 0.926,-0.178 1.211,-0.32 0.143,-0.072 0.321,0.285 0.321,0.57 0,0.143 -0.25,0.818 -0.321,0.926 -0.534,0.713 -1.39,1.283 -2.601,1.283 -0.927,0 -2.066,-0.357 -2.529,-2.209 0,-0.037 -0.285,-0.215 -0.356,-0.18 -0.748,0.57 -1.924,1.248 -2.744,1.711 -0.641,0.355 -1.246,0.535 -1.888,0.535 -1.069,0 -3.385,-1.318 -3.385,-4.205 0,-0.855 0.285,-1.389 0.534,-1.711 0.534,-0.676 1.283,-0.996 1.425,-1.033 3.599,-0.854 5.273,-1.281 6.058,-1.709 0.178,-0.072 0.392,-0.32 0.392,-0.535 0,-0.748 0,-0.926 0,-1.354 0,-0.393 0,-0.605 -0.106,-0.926 -0.499,-1.391 -2.031,-1.996 -3.136,-1.996 -0.748,0 -1.461,0.32 -1.604,0.463 -0.143,0.178 -0.285,0.678 -0.356,1.746 -0.035,0.393 -0.178,0.678 -0.32,0.783 -0.178,0.143 -0.819,0.285 -1.033,0.285 -0.285,0 -1.176,-0.035 -1.496,-0.178 -0.179,-0.07 -0.428,-0.428 -0.428,-0.57 0,-0.605 1.033,-1.709 2.565,-2.779 1.354,-0.891 2.992,-1.602 4.204,-1.602 1.318,10e-4 2.209,0.392 3.242,1.355 z m -1.96,10.367 c 0.107,-0.25 0.25,-0.641 0.285,-1.068 l 0.036,-2.281 c 0,-0.143 -0.179,-0.213 -0.285,-0.213 -1.033,0.178 -3.1,0.678 -3.812,0.926 -0.998,0.357 -1.318,0.748 -1.318,1.639 0,1.141 1.069,2.209 2.387,2.209 0.783,-10e-4 1.924,-0.464 2.707,-1.212 z" />
		<path
   style="fill:#ffffff"
   inkscape:connector-curvature="0"
   id="path25"
   d="m 316.923,324.363 c 0.249,0 0.428,0.393 0.463,0.607 0,0.391 0,0.961 -0.035,1.139 -0.107,0.393 -0.428,0.463 -0.819,0.463 -1.318,0 -3.207,0.037 -4.026,0.037 -0.071,0 -0.25,0.143 -0.25,0.533 l -0.106,6.484 c -0.036,1.604 0.106,2.174 0.534,2.674 0.464,0.498 1.497,0.783 1.924,0.783 0.642,0 1.104,-0.178 1.64,-0.32 0.32,-0.072 0.569,-0.215 0.783,-0.215 0.143,0 0.321,0.25 0.321,0.535 0,0.393 -0.285,0.818 -0.855,1.246 -1.14,0.855 -2.743,1.105 -3.634,1.105 -0.962,0 -2.352,-0.498 -3.136,-1.639 -0.285,-0.428 -0.499,-1.248 -0.499,-2.529 0,-2.494 0.179,-4.668 0.179,-8.053 0,-0.393 -0.107,-0.428 -1.104,-0.57 -0.57,-0.072 -1.069,-0.855 -1.069,-1.033 0,-0.143 0.428,-0.463 0.748,-0.748 0.606,-0.5 1.924,-1.318 2.565,-2.139 0.57,-0.713 1.247,-0.926 1.426,-0.926 0.142,0 0.32,0.355 0.32,0.535 0,0.391 -0.036,1.531 -0.036,1.746 0,0.141 0.036,0.426 0.285,0.426 0.391,0.002 3.562,-0.141 4.381,-0.141 z" />
		<path
   style="fill:#ffffff"
   inkscape:connector-curvature="0"
   id="path27"
   d="m 324.332,337.119 c 0,1.391 -1.104,2.281 -2.388,2.281 -1.033,0 -2.138,-0.855 -2.138,-2.246 0,-1.566 1.354,-2.422 2.316,-2.422 1.533,0 2.21,1.389 2.21,2.387 z" />
		<path
   style="fill:#ffffff"
   inkscape:connector-curvature="0"
   id="path29"
   d="m 339.085,325.148 c 0.106,0.07 0.32,0.57 0.32,0.855 0,0.996 -0.642,1.852 -1.14,1.852 -0.179,0 -0.713,-0.285 -1.212,-0.818 -0.926,-0.963 -2.066,-1.318 -3.385,-1.318 -0.962,0 -1.71,0.428 -2.387,1.176 -0.82,0.926 -1.212,2.387 -1.212,4.203 0,3.812 2.814,5.736 5.273,5.736 1.354,0 2.352,-0.391 3.562,-1.496 0.214,-0.178 0.642,0.035 0.642,0.32 0,0.357 -0.071,0.82 -0.463,1.354 -1.141,1.604 -3.242,2.389 -5.238,2.389 -1.745,0 -3.42,-0.605 -4.773,-1.854 -0.962,-0.855 -2.031,-2.922 -2.031,-5.273 0,-3.207 1.604,-5.521 3.634,-6.77 1.746,-1.104 3.242,-1.424 4.739,-1.424 2.388,0 3.386,0.748 3.671,1.068 z" />
		<path
   style="fill:#ffffff"
   inkscape:connector-curvature="0"
   id="path31"
   d="m 356.938,331.525 c 0,2.709 -1.104,4.633 -2.315,5.736 -1.283,1.176 -3.028,2.139 -5.38,2.139 -2.103,0 -4.134,-0.855 -5.63,-2.316 -1.532,-1.496 -2.103,-3.67 -2.103,-5.273 0,-2.494 1.283,-4.668 2.851,-5.914 1.176,-0.998 3.136,-1.816 4.988,-1.816 4.918,-0.001 7.554,4.167 7.589,7.444 z m -10.545,-4.953 c -0.356,0.393 -1.461,1.996 -1.461,4.703 0,1.996 0.677,4.455 2.138,5.701 0.356,0.285 1.39,0.963 2.708,0.963 0.854,0 1.995,-0.5 2.708,-1.391 0.748,-0.961 0.962,-2.707 0.962,-4.773 0,-3.029 -1.604,-6.199 -4.632,-6.199 -0.785,0 -1.924,0.463 -2.423,0.996 z" />
		<path
   style="fill:#ffffff"
   inkscape:connector-curvature="0"
   id="path33"
   d="m 360.024,325.434 c 0.784,-0.32 1.567,-0.643 2.743,-1.391 0.25,-0.178 0.321,-0.213 0.393,-0.213 0.249,0 0.569,0.32 0.569,0.391 0,0.607 0,0.893 0,1.498 0,0.143 0.179,0.32 0.356,0.178 0.998,-0.678 2.993,-1.816 4.917,-1.816 2.103,0 3.207,1.104 3.741,1.924 0.035,0.07 0.32,0.178 0.463,0.105 0.534,-0.391 1.71,-1.139 2.637,-1.531 0.784,-0.32 1.354,-0.498 2.458,-0.498 3.136,0 4.312,2.92 4.418,5.379 0.107,2.244 0.25,6.164 0.25,7.055 0,0.605 0.748,1.033 1.354,1.248 0.464,0.178 0.819,0.355 0.819,0.711 0,0.428 -0.463,0.57 -0.783,0.57 -0.819,0 -1.924,-0.07 -2.744,-0.07 -0.819,0 -1.816,0.07 -2.636,0.07 -0.57,0 -0.998,-0.32 -0.998,-0.605 0,-0.143 0.178,-0.535 0.855,-0.713 0.891,-0.248 1.14,-0.783 1.14,-1.566 0,-1.711 -0.035,-4.49 -0.035,-6.021 -0.036,-1.391 -0.143,-1.961 -0.57,-2.637 -0.428,-0.643 -1.283,-1.176 -2.601,-1.176 -1.532,0 -2.887,0.676 -3.136,0.891 -0.143,0.143 -0.356,0.676 -0.356,1.104 0,5.594 0.036,6.912 0.107,7.732 0.035,0.818 0.463,1.283 1.246,1.531 0.713,0.25 0.927,0.463 0.927,0.855 0,0.392 -0.428,0.605 -0.855,0.605 -0.926,0 -2.066,-0.07 -2.992,-0.07 -0.784,0 -1.746,0.07 -2.53,0.07 -0.569,0 -1.068,-0.355 -1.068,-0.641 0,-0.286 0.32,-0.5 0.891,-0.713 0.962,-0.355 1.39,-0.57 1.425,-1.959 l 0.107,-6.842 c 0,-0.713 -0.499,-1.496 -0.534,-1.566 -0.499,-0.643 -1.354,-1.105 -2.744,-1.105 -1.39,0 -2.352,0.463 -3.063,0.963 -0.071,0.07 -0.393,0.818 -0.393,0.926 0,6.271 0,7.09 0.071,8.016 0.071,0.998 0.534,1.248 1.176,1.568 0.677,0.355 0.784,0.535 0.784,0.783 0,0.357 -0.356,0.605 -0.891,0.605 -0.855,0 -2.031,-0.105 -3.1,-0.105 -0.82,0 -1.604,0.178 -2.423,0.178 -0.606,0 -0.998,-0.285 -0.998,-0.605 0,-0.32 0.32,-0.535 0.855,-0.748 1.39,-0.57 1.532,-0.855 1.567,-1.996 0.071,-1.318 0.143,-4.203 0.143,-7.482 0,-0.355 -0.178,-0.818 -0.784,-1.281 -0.641,-0.5 -0.783,-0.643 -0.783,-0.748 0,-0.288 0.32,-0.716 0.605,-0.858 z" />
	</g>
</svg>